<?xml version="1.0" encoding="UTF-8"?> <svg xmlns="http://www.w3.org/2000/svg" width="80" height="80" viewBox="0 0 80 80" fill="none"><circle cx="40" cy="40" r="40" fill="white"></circle><path d="M60.7228 40.5525C60.5346 40.3021 60.2401 40.155 59.9275 40.155H27.5768C27.1323 40.155 26.7415 40.4505 26.6192 40.8791L21.2418 59.7261C21.1559 60.0276 21.2159 60.352 21.4041 60.6023C21.5923 60.8526 21.8867 60.9998 22.1994 60.9998H54.5501C54.9946 60.9998 55.3854 60.7043 55.5077 60.2757L60.885 41.4286C60.971 41.1272 60.9109 40.8028 60.7228 40.5525ZM31.8561 59.0018H23.5204L24.7291 54.7657H33.0648L31.8561 59.0018ZM25.2991 52.7679L26.5904 48.2418H33.0445C33.5946 48.2418 34.0405 47.7946 34.0405 47.2429C34.0405 46.6912 33.5946 46.2439 33.0445 46.2439H27.1604L28.3278 42.1528H36.6635L33.6348 52.7679H25.2991ZM33.9282 59.0019L35.1369 54.7658H41.8304C42.3805 54.7658 42.8264 54.3186 42.8264 53.7668C42.8264 53.2151 42.3805 52.7679 41.8304 52.7679H35.707L38.7357 42.1528H47.4184L46.2511 46.2439H39.4248C38.8748 46.2439 38.4288 46.6912 38.4288 47.2429C38.4288 47.7946 38.8746 48.2418 39.4246 48.2418H45.6809L42.6109 59.0019H33.9282ZM55.5779 52.7679H48.4196C47.8695 52.7679 47.4236 53.2151 47.4236 53.7668C47.4236 54.3186 47.8695 54.7658 48.4196 54.7658H55.0079L53.7992 59.0019H44.6829L47.7529 48.2418H56.8692L55.5779 52.7679ZM57.4392 46.2439H48.3229L49.4902 42.1528H58.6065L57.4392 46.2439Z" fill="#8ECBDE"></path><path d="M64.8591 59.4891L60.5529 52.251C60.271 51.7772 59.6594 51.6224 59.1872 51.905C58.7148 52.1877 58.5605 52.801 58.8423 53.2747L63.1486 60.5128C63.335 60.8262 63.6656 61 64.0049 61C64.1785 61 64.3544 60.9545 64.5143 60.8588C64.9866 60.5761 65.141 59.9628 64.8591 59.4891Z" fill="#8ECBDE"></path><path d="M25.5139 30.336C28.6978 30.336 31.2881 27.7381 31.2881 24.5448C31.2881 21.3515 28.6978 18.7536 25.5139 18.7536C22.33 18.7536 19.7396 21.3515 19.7396 24.5448C19.7396 27.7381 22.33 30.336 25.5139 30.336ZM25.5139 20.7515C27.5994 20.7515 29.2961 22.4532 29.2961 24.5448C29.2961 26.6363 27.5994 28.3381 25.5139 28.3381C23.4284 28.3381 21.7317 26.6364 21.7317 24.5448C21.7317 22.4531 23.4284 20.7515 25.5139 20.7515Z" fill="#8ECBDE"></path><path d="M25.5974 17.3377C26.1475 17.3377 26.5934 16.8904 26.5934 16.3387V14.9989C26.5934 14.4472 26.1475 14 25.5974 14C25.0473 14 24.6014 14.4472 24.6014 14.9989V16.3387C24.6014 16.8904 25.0473 17.3377 25.5974 17.3377Z" fill="#8ECBDE"></path><path d="M19.0831 19.3893C19.2777 19.5844 19.5325 19.6819 19.7874 19.6819C20.0423 19.6819 20.2973 19.5843 20.4917 19.3893C20.8806 18.9992 20.8806 18.3667 20.4917 17.9766L19.5471 17.0293C19.1581 16.6392 18.5275 16.6392 18.1385 17.0293C17.7496 17.4194 17.7496 18.0519 18.1385 18.442L19.0831 19.3893Z" fill="#8ECBDE"></path><path d="M18.3279 24.4609C18.3279 23.9092 17.882 23.462 17.3319 23.462H15.996C15.4459 23.462 15 23.9092 15 24.4609C15 25.0126 15.4459 25.4599 15.996 25.4599H17.3319C17.882 25.4599 18.3279 25.0126 18.3279 24.4609Z" fill="#8ECBDE"></path><path d="M16.6514 31.9021L16.5038 32.0502C16.1148 32.4403 16.1148 33.0728 16.5038 33.463C16.6983 33.6581 16.9532 33.7556 17.2081 33.7556C17.4629 33.7556 17.7179 33.6581 17.9123 33.463L18.06 33.3149C18.4489 32.9248 18.4489 32.2923 18.06 31.9021C17.671 31.512 17.0403 31.512 16.6514 31.9021Z" fill="#8ECBDE"></path><path d="M18.965 29.5818L18.5206 30.0275C18.1317 30.4176 18.1317 31.0501 18.5206 31.4403C18.7151 31.6354 18.97 31.7329 19.2249 31.7329C19.4798 31.7329 19.7347 31.6354 19.9292 31.4403L20.3736 30.9946C20.7625 30.6045 20.7625 29.972 20.3736 29.5818C19.9846 29.1917 19.354 29.1917 18.965 29.5818Z" fill="#8ECBDE"></path><path d="M24.4344 32.7509V34.0907C24.4344 34.6424 24.8804 35.0896 25.4305 35.0896C25.9806 35.0896 26.4265 34.6424 26.4265 34.0907V32.7509C26.4265 32.1992 25.9806 31.752 25.4305 31.752C24.8804 31.752 24.4344 32.1992 24.4344 32.7509Z" fill="#8ECBDE"></path><path d="M31.9448 29.7001C31.5558 29.3101 30.9251 29.3101 30.5361 29.7001C30.1472 30.0902 30.1472 30.7228 30.5361 31.1129L31.4806 32.0602C31.6751 32.2553 31.93 32.3528 32.1849 32.3528C32.4398 32.3528 32.6948 32.2553 32.8892 32.0602C33.2781 31.6702 33.2781 31.0376 32.8892 30.6474L31.9448 29.7001Z" fill="#8ECBDE"></path><path d="M32.6999 24.6286C32.6999 25.1803 33.1459 25.6275 33.696 25.6275H35.0318C35.5819 25.6275 36.0278 25.1803 36.0278 24.6286C36.0278 24.0768 35.5819 23.6296 35.0318 23.6296H33.696C33.1459 23.6296 32.6999 24.0768 32.6999 24.6286Z" fill="#8ECBDE"></path><path d="M33.6856 17.4665C33.9405 17.4665 34.1954 17.369 34.3899 17.1739L34.5763 16.9869C34.9653 16.5968 34.9653 15.9643 34.5763 15.5741C34.1874 15.184 33.5567 15.184 33.1677 15.5741L32.9812 15.7611C32.5923 16.1512 32.5923 16.7837 32.9812 17.1739C33.1757 17.369 33.4307 17.4665 33.6856 17.4665Z" fill="#8ECBDE"></path><path d="M31.3585 19.8005C31.6134 19.8005 31.8684 19.7029 32.0628 19.5079L32.5071 19.0622C32.8961 18.672 32.8961 18.0395 32.5071 17.6494C32.1182 17.2594 31.4874 17.2594 31.0986 17.6494L30.6542 18.0952C30.2653 18.4854 30.2653 19.1178 30.6542 19.5079C30.8488 19.703 31.1036 19.8005 31.3585 19.8005Z" fill="#8ECBDE"></path></svg> 