<?xml version="1.0" encoding="UTF-8"?> <svg xmlns="http://www.w3.org/2000/svg" width="80" height="80" viewBox="0 0 80 80" fill="none"><circle cx="40" cy="40" r="40" fill="white"></circle><path d="M55.8999 35.2541C55.7795 34.9952 55.5608 34.7946 55.2919 34.6964L43.2037 30.2813C43.2048 30.2439 43.2076 30.2069 43.2076 30.1693C43.2076 28.7886 42.4928 27.5717 41.4132 26.8644C41.8353 26.4086 42.2 25.8574 42.4944 25.2204C43.2265 23.636 43.4407 21.6811 43.0974 19.7154C42.7542 17.7497 41.8902 15.9816 40.6641 14.7368C39.3339 13.3858 37.7351 12.7923 36.1615 13.0647C35.574 13.1666 35.1807 13.7236 35.2828 14.3088L37.4373 26.6494C36.1534 27.3047 35.2719 28.636 35.2719 30.1692C35.2719 30.17 35.272 30.1706 35.272 30.1714C34.7039 30.0595 34.0915 30.0292 33.4447 30.0889C31.7016 30.2494 29.8952 31.042 28.3581 32.321C26.8211 33.5999 25.7162 35.2295 25.247 36.9098C24.738 38.733 25.0214 40.4097 26.045 41.6309C26.2586 41.8856 26.5653 42.017 26.8743 42.017C27.1183 42.017 27.3638 41.935 27.5658 41.767L36.7196 34.1505L34.6824 64.8486H26.5877C25.9914 64.8486 25.5081 65.3303 25.5081 65.9243C25.5081 66.5183 25.9914 67 26.5877 67H46.8461C47.4424 67 47.9258 66.5183 47.9258 65.9243C47.9258 65.3303 47.4424 64.8486 46.8461 64.8486H43.7972L41.8056 34.8373C41.9237 35.0476 42.055 35.2565 42.2016 35.463C43.2127 36.8867 44.805 38.049 46.6852 38.7357C47.846 39.1597 49.0406 39.3746 50.1838 39.3746C50.8922 39.3746 51.5809 39.292 52.2295 39.1256C54.0688 38.6532 55.3845 37.5704 55.9341 36.0766C56.0326 35.8088 56.0203 35.5129 55.8999 35.2541ZM27.2246 39.2478C26.8949 37.6986 27.8664 35.5331 29.7421 33.9723C30.9463 32.9703 32.3318 32.352 33.6432 32.2311C33.7956 32.2171 33.944 32.2102 34.0886 32.2102C34.5782 32.2102 35.0208 32.29 35.4007 32.4448L27.2246 39.2478ZM39.1228 16.2434C40.0451 17.18 40.7012 18.5441 40.9701 20.0841C41.2389 21.6242 41.0836 23.1288 40.5329 24.3207C40.2522 24.9282 39.8888 25.4059 39.4686 25.7302L37.6432 15.2747C38.1486 15.4386 38.6526 15.766 39.1228 16.2434ZM39.2397 28.3675C40.2369 28.3675 41.0481 29.1757 41.0481 30.1692C41.0481 30.84 40.677 31.4514 40.0799 31.7647C39.8188 31.9015 39.5362 31.971 39.2397 31.971C38.9432 31.971 38.6606 31.9015 38.3996 31.7648C37.8022 31.4514 37.4311 30.84 37.4311 30.1692C37.4312 29.1757 38.2425 28.3675 39.2397 28.3675ZM36.8499 64.7955L38.8864 34.1065L38.8852 34.1046C39.003 34.1152 39.1212 34.1223 39.2397 34.1223C39.3581 34.1223 39.4764 34.1151 39.5941 34.1046L39.593 34.1065L41.6295 64.7955H36.8499ZM47.4282 36.7159C45.955 36.1778 44.7248 35.2916 43.9642 34.2204C43.5765 33.6744 43.3431 33.1221 43.2712 32.5972L53.2727 36.2503C52.0908 37.3092 49.7228 37.554 47.4282 36.7159Z" fill="#8ECBDE"></path><path d="M52.4965 64.8486H51.1183C50.522 64.8486 50.0386 65.3303 50.0386 65.9243C50.0386 66.5183 50.522 67 51.1183 67H52.4965C53.0928 67 53.5761 66.5183 53.5761 65.9243C53.5761 65.3303 53.0928 64.8486 52.4965 64.8486Z" fill="#8ECBDE"></path></svg> 